<svg width="105" height="120" viewBox="0 0 105 120" fill="none" xmlns="http://www.w3.org/2000/svg">
<path d="M72.5827 55.1282C70.1304 54.6415 67.6282 55.3533 65.7166 57.0912C64.659 58.0523 64.5205 59.7631 65.4057 60.91C66.2922 62.0596 67.8667 62.2087 68.923 61.2475C69.6897 60.5494 70.6936 60.2674 71.6775 60.4599C72.6614 60.6578 73.5054 61.314 73.9924 62.2629C74.4494 63.1522 75.2997 63.6524 76.1762 63.6524C76.5882 63.6524 77.0053 63.5426 77.3911 63.3081C78.5947 62.5788 79.0268 60.9276 78.355 59.6194C77.1389 57.2566 75.0362 55.619 72.5827 55.1282Z" fill="#553535"/>
<path d="M32.9244 38.1611C33.9008 37.6216 34.4739 36.4327 34.2442 35.2113C33.8097 32.904 33.108 30.6238 32.1565 28.4236C29.3996 22.1132 20.0999 13.6798 14.7022 11.4606C14.0692 11.199 13.3625 11.2302 12.7494 11.546C12.1363 11.8619 11.6668 12.4326 11.4508 13.1307C10.8315 15.1289 10.3596 17.7941 10.1236 20.6396C9.9987 22.1321 11.0126 23.4485 12.386 23.584C13.7533 23.706 14.9744 22.6188 15.0968 21.1263C15.1892 20.0187 15.3228 18.9356 15.4888 17.9337C19.9376 20.8402 25.8598 26.6654 27.6391 30.7404C28.1585 31.9401 28.5793 33.1697 28.9114 34.4141C25.7199 36.3784 22.8419 38.7115 20.3185 41.3997C19.1822 39.9343 18.071 38.1719 17.0059 36.0789C15.9059 33.9004 15.2154 30.8068 15.0081 27.1358C14.9245 25.6405 13.7508 24.4923 12.3636 24.5953C10.9864 24.6861 9.93877 25.9726 10.0237 27.4665C10.2759 31.9306 11.1749 35.8091 12.6308 38.6925C14.4762 42.3161 16.484 45.2172 18.6029 47.313C19.0811 47.7874 19.6842 48.0206 20.2847 48.0206C20.9615 48.0206 21.637 47.7224 22.1302 47.1367C22.1377 47.1272 22.1427 47.1164 22.1514 47.1056L22.1539 47.1083C25.1056 43.4942 28.7316 40.486 32.9294 38.1692L32.9244 38.1611Z" fill="#553535"/>
<path d="M92.1358 11.5461C91.5227 11.2315 90.8173 11.199 90.183 11.4606C84.7852 13.6798 75.4856 22.1118 72.7249 28.4318C71.776 30.6238 71.0743 32.9067 70.641 35.2127C70.4113 36.4341 70.9844 37.6216 71.9608 38.1611L71.9558 38.172C76.1549 40.4888 79.7796 43.4969 82.7313 47.111L82.7338 47.1083C82.7413 47.1178 82.7463 47.1286 82.755 47.1381C83.2482 47.7251 83.9237 48.022 84.6017 48.022C85.2023 48.022 85.8041 47.7875 86.2836 47.3157C88.2339 45.3853 90.0993 42.7622 91.8274 39.5154C92.5179 38.2194 92.1096 36.5601 90.9159 35.8118C89.7197 35.0595 88.1939 35.5055 87.5047 36.8014C86.5533 38.5895 85.5681 40.1092 84.5692 41.3998C82.0458 38.7115 79.1665 36.3785 75.9763 34.4142C76.3097 33.1711 76.728 31.9429 77.2449 30.7486C79.0279 26.6654 84.9538 20.8348 89.4038 17.9311C90.0331 21.7065 90.2129 26.7969 89.4138 31.181C89.1466 32.6492 90.0257 34.0766 91.3791 34.3667C92.7364 34.6623 94.0462 33.7025 94.3134 32.233C95.5395 25.5009 94.8016 17.5285 93.4381 13.1308C93.2183 12.4326 92.7501 11.8606 92.1358 11.5461Z" fill="#553535"/>
<path d="M97.1578 0.382481C92.5167 -1.97496 71.7174 6.7553 65.3407 21.3256C64.2782 23.74 63.4479 26.1923 62.8735 28.6121C62.8373 28.7667 62.7736 28.8751 62.7262 28.9361C59.4124 28.1621 55.9575 27.7703 52.4489 27.7689C52.4464 27.7689 52.4451 27.7689 52.4426 27.7689C52.4401 27.7689 52.4389 27.7689 52.4364 27.7689C48.9191 27.7703 45.4542 28.1634 42.1604 28.9361C42.1104 28.8738 42.048 28.7653 42.0118 28.6135C41.4374 26.1923 40.6071 23.74 39.547 21.331C33.1679 6.75665 12.3711 -1.96412 7.70629 0.393326C3.08644 2.79686 -3.80961 25.8168 2.59824 40.4319C4.81452 45.4789 7.90607 49.9443 11.5383 53.3456C11.8966 53.6804 12.014 54.1861 11.8467 54.6673C10.3908 58.8196 9.62165 63.3867 9.62165 67.8685C9.62165 81.3407 16.69 93.6661 28.5768 101.132C29.6106 111.806 37.8227 119.964 47.8852 119.964H52.4426H57C67.0863 119.964 75.3134 111.766 76.3098 101.13C88.1965 93.6648 95.2636 81.3407 95.2636 67.8685C95.2636 63.3854 94.4945 58.8196 93.0386 54.6673C92.8713 54.1874 92.9886 53.6804 93.347 53.3456C96.9792 49.943 100.071 45.4775 102.288 40.4292C108.695 25.8168 101.799 2.79686 97.1578 0.382481ZM97.7783 38.0975C95.8567 42.4721 93.1959 46.3248 90.0831 49.2408C88.1516 51.0505 87.4636 54.0071 88.37 56.5964C89.6112 60.14 90.2679 64.0388 90.2679 67.8698C90.2679 78.4953 85.03 88.3412 76.0925 94.893C76.0413 94.5351 75.9851 94.1691 75.9189 93.7895C75.4083 90.8518 74.6079 88.1677 73.5428 85.8143C72.5802 83.6805 71.4489 81.5034 70.249 79.2015C67.3073 73.5499 63.9723 67.1432 62.7986 60.2363C62.0007 55.539 61.8996 50.3497 62.5002 44.8133C62.6612 43.3261 61.6811 41.9786 60.3126 41.8038C58.9379 41.618 57.7018 42.6931 57.5407 44.1802C56.8827 50.2534 56.9988 55.9877 57.8878 61.2205C59.2138 69.0208 62.7674 75.8464 65.9014 81.8681C67.0626 84.0994 68.1601 86.2061 69.0591 88.2016C69.9281 90.1198 70.5849 92.3376 71.0119 94.794C71.354 96.761 71.4439 98.3227 71.4439 98.8731C71.4439 99.0195 71.4452 99.1768 71.4327 99.4086C71.1742 107.895 64.8351 114.541 57 114.541H54.9336V107.077C56.563 106.505 58.1063 105.376 59.3836 103.665L61.8034 100.421C64.1695 97.2491 62.4939 91.8252 59.1477 91.8252H45.7251C42.3789 91.8252 40.702 97.2491 43.0693 100.421L45.4891 103.665C46.7665 105.377 48.3097 106.505 49.9392 107.077V114.541H47.8852C40.0502 114.541 33.711 107.895 33.4476 99.315C33.4388 99.1713 33.4401 99.0181 33.4401 98.8744C33.4401 98.3254 33.53 96.7651 33.8733 94.7954C34.3004 92.3376 34.9571 90.1211 35.8287 88.1975C36.7239 86.2101 37.8202 84.1035 38.9802 81.8762C39.9116 80.0881 40.8743 78.2377 41.8082 76.3059C42.4488 74.9801 41.9793 73.3411 40.7582 72.6457C39.537 71.9503 38.0275 72.4586 37.3857 73.7858C36.4867 75.6444 35.544 77.4568 34.6313 79.2083C33.4338 81.5102 32.3013 83.6833 31.3437 85.8102C30.2761 88.1677 29.4745 90.8532 28.9638 93.7908C28.8976 94.1704 28.8415 94.5364 28.7903 94.8943C19.854 88.3398 14.6161 78.4952 14.6161 67.8685C14.6161 64.0375 15.2728 60.1387 16.514 56.595C17.4217 54.0058 16.7325 51.0492 14.8009 49.2394C11.6881 46.3248 9.02732 42.4707 7.10571 38.0988C1.89402 26.2127 7.67258 8.33732 9.89135 5.36984C13.4149 5.37391 29.8378 11.7806 35.037 23.6627C35.961 25.7626 36.6802 27.8828 37.1747 29.9664C37.6217 31.8521 38.8366 33.3446 40.3748 34.017C41.6322 38.7021 43.9221 49.4346 42.0854 60.2336C41.7046 62.4744 41.0903 64.7519 40.2063 67.1988C39.7031 68.5924 40.3349 70.1649 41.6185 70.7126C41.9181 70.8414 42.2265 70.9024 42.5299 70.9024C43.5263 70.9024 44.469 70.249 44.8549 69.1794C45.8562 66.4071 46.5567 63.8029 46.9962 61.2191C48.8629 50.2358 46.8913 39.4097 45.4979 33.7811C47.7616 33.3934 50.0853 33.1901 52.4414 33.1901C54.7925 33.1901 57.1124 33.3934 59.3836 33.7825C59.1189 34.848 58.8392 36.0749 58.5683 37.4535C58.2799 38.9176 59.1389 40.3587 60.4874 40.6718C60.6635 40.7125 60.8395 40.7315 61.0118 40.7315C62.1643 40.7315 63.2006 39.8598 63.4516 38.5869C63.8174 36.7323 64.1995 35.1734 64.5092 34.017C66.0475 33.3446 67.2611 31.8521 67.7081 29.9664C68.2026 27.8842 68.9217 25.7626 69.8482 23.6587C75.0462 11.782 91.4691 5.37391 94.9914 5.3712C97.2114 8.33732 102.99 26.214 97.7783 38.0975Z" fill="#553535"/>
<path d="M39.1562 57.0912C37.2445 55.3533 34.7423 54.6402 32.29 55.1283C29.8378 55.619 27.7339 57.2566 26.519 59.6208C25.8472 60.929 26.2792 62.5801 27.4829 63.3095C27.8687 63.544 28.2857 63.6538 28.6978 63.6538C29.5743 63.6538 30.4234 63.1536 30.8816 62.2643C31.3686 61.3153 32.2126 60.6579 33.1965 60.4613C34.1804 60.2688 35.1831 60.5508 35.951 61.2489C37.0073 62.2087 38.583 62.0596 39.4683 60.9114C40.3536 59.7632 40.2125 58.0524 39.1562 57.0912Z" fill="#553535"/>
</svg>
